<?xml version="1.0" standalone="no"?><!DOCTYPE svg PUBLIC "-//W3C//DTD SVG 1.1//EN" "http://www.w3.org/Graphics/SVG/1.1/DTD/svg11.dtd"><svg t="1493801326076" class="icon" style="" viewBox="0 0 1024 1024" version="1.1" xmlns="http://www.w3.org/2000/svg" p-id="7676" xmlns:xlink="http://www.w3.org/1999/xlink" width="200" height="200"><defs><style type="text/css"></style></defs><path d="M514.048 1018.88C235.52 1018.88 9.216 792.576 9.216 514.048S235.52 9.216 514.048 9.216 1018.88 235.52 1018.88 514.048 792.576 1018.88 514.048 1018.88z m0-992.768c-269.312 0-487.936 219.136-487.936 487.936s219.136 487.936 487.936 487.936 487.936-219.136 487.936-487.936S783.36 26.112 514.048 26.112z" p-id="7677"></path><path d="M334.336 516.096h-51.2c-21.504 0-31.232 0.512-45.568 3.072v-40.448c13.824 2.56 23.552 3.072 48.128 3.072h43.008c20.48 0 31.744-0.512 47.104-3.072-2.048 18.944-2.56 34.816-2.56 62.976v152.576c3.072 3.072 5.632 5.12 9.216 8.192 31.232 27.648 41.472 33.28 69.632 39.424 24.576 5.12 77.312 8.192 143.872 8.192 89.6 0 160.256-3.072 214.016-10.24-8.192 16.384-10.752 24.576-14.336 45.056-62.464 2.56-128 3.584-217.6 3.584-68.608 0-124.416-5.632-151.552-15.872-14.848-5.12-30.208-13.312-38.912-19.968-3.072-2.048-3.072-2.048-22.528-20.48-6.656-5.632-14.336-9.216-19.968-9.216-13.824 0-30.208 10.752-55.808 36.864-25.088 25.088-25.6 26.112-34.816 36.864l-31.232-28.672c51.2-50.688 84.48-75.264 111.104-81.92v-169.984z m-51.2-259.584c41.984 39.936 60.416 60.416 98.816 109.056L349.696 394.24C312.32 340.992 297.984 323.584 253.952 282.112l29.184-25.6z m417.792 67.072c31.744 0 46.08-0.512 59.904-3.072v41.984c-19.456-2.048-35.84-2.56-59.904-2.56h-81.92v84.992h117.76c19.968 0 34.304-0.512 53.76-3.072v41.984c-17.408-2.56-33.792-3.072-53.248-3.072h-78.848v155.648c0 14.336 11.776 19.456 45.568 19.456 27.136 0 32.768-1.024 38.912-7.68 1.024-0.512 1.024-1.024 2.56-2.048 5.632-10.24 8.704-34.816 10.24-81.92 15.872 8.192 23.04 11.264 38.4 13.824-2.048 14.848-2.56 22.528-3.072 33.28-3.072 41.984-7.68 57.344-19.968 67.584-11.776 10.24-33.28 14.336-67.584 14.336-61.44 0-79.872-8.192-79.872-35.84V480.256h-57.344c-5.12 55.808-16.384 89.6-43.008 126.976-26.112 36.352-54.784 59.904-107.008 87.04-1.024-2.048-1.024-2.048-3.584-5.12-8.192-12.288-11.776-17.408-19.968-25.088 45.568-22.016 71.168-41.472 95.232-71.168 25.6-33.28 36.352-62.464 41.984-112.64H463.872c-21.504 0-39.424 1.024-57.344 3.072v-41.984c16.384 2.048 34.304 3.072 56.32 3.072h118.784V359.936H485.888c-11.264 19.456-19.968 31.744-37.376 51.712-10.24-11.776-16.384-16.384-30.72-23.552 19.968-21.504 33.792-41.472 45.056-65.536 10.752-22.528 17.408-43.008 20.48-62.464l40.448 8.704c-3.072 6.656-4.608 10.24-8.192 21.504-6.656 17.92-8.704 23.552-14.336 33.792h79.872v-29.184c0-23.04-1.024-34.304-3.584-50.688h45.056c-3.072 16.896-3.584 30.208-3.584 50.688v29.184h81.92z" p-id="7678"></path></svg>