<?xml version="1.0" standalone="no"?><!DOCTYPE svg PUBLIC "-//W3C//DTD SVG 1.1//EN" "http://www.w3.org/Graphics/SVG/1.1/DTD/svg11.dtd"><svg t="1493800144924" class="icon" style="" viewBox="0 0 1024 1024" version="1.1" xmlns="http://www.w3.org/2000/svg" p-id="1440" xmlns:xlink="http://www.w3.org/1999/xlink" width="200" height="200"><defs><style type="text/css"></style></defs><path d="M73.582367 0.001023l657.69629 0 0 73.242118-657.69629 0 0-73.242118Z" p-id="1441"></path><path d="M291.727713 292.181549l293.41361 0 0 73.243141-293.41361 0 0-73.243141Z" p-id="1442"></path><path d="M291.727713 438.459077l439.550944 0 0 73.244164-439.550944 0 0-73.244164Z" p-id="1443"></path><path d="M291.727713 584.738651l439.550944 0 0 73.241095-439.550944 0 0-73.241095Z" p-id="1444"></path><path d="M291.727713 731.016179l439.550944 0 0 73.240071-439.550944 0 0-73.240071Z" p-id="1445"></path><path d="M658.122497 73.244164l146.485259 0 0 73.243141-146.485259 0 0-73.243141Z" p-id="1446"></path><path d="M658.122497 144.8142l73.15616 0 0 147.367349-73.15616 0 0-147.367349Z" p-id="1447"></path><path d="M804.608779 146.487306l73.15616 0 0 145.694243-73.15616 0 0-145.694243Z" p-id="1448"></path><path d="M658.122497 218.497363l292.294113 0 0 73.683163-292.294113 0 0-73.683163Z" p-id="1449"></path><path d="M73.582367 950.756859l866.951151 0 0 73.242118-866.951151 0 0-73.242118Z" p-id="1450"></path><path d="M73.582367 72.541153l72.980151 0 0 939.836135-72.980151 0 0-939.836135Z" p-id="1451"></path><path d="M877.436458 242.971777l72.981175 0 0 781.028223-72.981175 0 0-781.028223Z" p-id="1452"></path></svg>