<?xml version="1.0" standalone="no"?><!DOCTYPE svg PUBLIC "-//W3C//DTD SVG 1.1//EN" "http://www.w3.org/Graphics/SVG/1.1/DTD/svg11.dtd"><svg width="200" height="200" viewBox="0 0 200 200" version="1.1" xmlns="http://www.w3.org/2000/svg" xmlns:xlink="http://www.w3.org/1999/xlink"><defs><style type="text/css"><![CDATA[
@font-face { font-family: ifont; src: url("http://at.alicdn.com/t/font_1442373896_4754455.eot?#iefix") format("embedded-opentype"), url("http://at.alicdn.com/t/font_1442373896_4754455.woff") format("woff"), url("http://at.alicdn.com/t/font_1442373896_4754455.ttf") format("truetype"), url("http://at.alicdn.com/t/font_1442373896_4754455.svg#ifont") format("svg"); }

]]></style></defs><g class="transform-group"><g transform="scale(0.1953125, 0.1953125)"><path d="M795.818723 952.883289l-722.4845 0 0-726.547401 722.4845 0L795.818723 952.883289zM83.567715 942.650227l702.017517 0 0-706.081277-702.017517 0L83.567715 942.650227zM467.638838 619.47171 902.733126 186.245821 842.263424 125.520785 407.169136 558.74565 385.103682 640.424928ZM377.88293 647.536906l24.704672-91.448782 0.972182-0.967024 438.720014-436.837136 67.690453 67.977207L470.255541 624.085798 377.88293 647.536906zM411.750671 561.4042l-19.425214 71.90875 72.695654-18.455327 430.475913-428.627151L842.249098 132.756583 411.750671 561.4042zM920.397155 174.3417 853.283871 107.809401 896.920503 77.218686 950.611539 130.444934ZM468.785782 550.399672l341.704348-340.050975 7.218705 7.253194-341.704348 340.050975-7.218705-7.253194ZM128.196995 854.18643l614.00949 0 0 10.233062-614.00949 0 0-10.233062ZM390.398491 634.792651 468.84946 617.122199 408.972278 559.050596Z" fill="#272636"></path></g></g></svg>