<?xml version="1.0" standalone="no"?><!DOCTYPE svg PUBLIC "-//W3C//DTD SVG 1.1//EN" "http://www.w3.org/Graphics/SVG/1.1/DTD/svg11.dtd"><svg width="228.7109375" height="200" viewBox="0 0 228.7109375 200" version="1.1" xmlns="http://www.w3.org/2000/svg" xmlns:xlink="http://www.w3.org/1999/xlink"><defs><style type="text/css"><![CDATA[
@font-face { font-family: ifont; src: url("http://at.alicdn.com/t/font_1442373896_4754455.eot?#iefix") format("embedded-opentype"), url("http://at.alicdn.com/t/font_1442373896_4754455.woff") format("woff"), url("http://at.alicdn.com/t/font_1442373896_4754455.ttf") format("truetype"), url("http://at.alicdn.com/t/font_1442373896_4754455.svg#ifont") format("svg"); }

]]></style></defs><g class="transform-group"><g transform="scale(0.1953125, 0.1953125)"><path d="M585.142857 0c128 0 237.714286 102.4 256 234.057143 18.285714-7.314286 40.228571-10.971429 62.171429-10.971429 58.514286 0 109.714286 25.6 146.285714 65.828571 36.571429 40.228571 58.514286 95.085714 58.514286 157.257143 0 58.514286-21.942857 113.371429-54.857143 149.942857l47.542857 51.2c21.942857 21.942857 40.228571 51.2 51.2 76.8 10.971429 29.257143 18.285714 62.171429 18.285714 91.428571l0 65.828571c0 18.285714-3.657143 36.571429-14.628571 51.2-10.971429 14.628571-25.6 25.6-43.885714 29.257143 0 0-3.657143 0-3.657143 0L1060.571429 961.828571l0 18.285714c0 21.942857-18.285714 40.228571-36.571429 40.228571l0 0L149.942857 1020.342857l0 0c-21.942857 0-36.571429-18.285714-36.571429-40.228571l0-18.285714L62.171429 961.828571c0 0-3.657143 0-3.657143 0-18.285714-3.657143-32.914286-14.628571-43.885714-29.257143C3.657143 921.6 0 903.314286 0 885.028571l0-65.828571c0-32.914286 7.314286-62.171429 18.285714-91.428571 10.971429-29.257143 29.257143-54.857143 51.2-76.8l47.542857-51.2c-32.914286-40.228571-54.857143-91.428571-54.857143-149.942857 0-62.171429 21.942857-117.028571 62.171429-157.257143 36.571429-40.228571 87.771429-65.828571 146.285714-65.828571 21.942857 0 40.228571 3.657143 62.171429 10.971429C347.428571 102.4 457.142857 0 585.142857 0L585.142857 0 585.142857 0zM702.171429 943.542857 702.171429 943.542857l0-36.571429 0 0 0-3.657143 0-142.628571c0-14.628571 10.971429-25.6 21.942857-25.6 10.971429 0 21.942857 10.971429 21.942857 25.6l0 106.057143 98.742857 0c0-3.657143 3.657143-7.314286 3.657143-10.971429l0-84.114286c0-32.914286-3.657143-58.514286-14.628571-87.771429l0 0 0 0c-7.314286-14.628571-14.628571-32.914286-25.6-47.542857l0 0 0 0 0 0 0 0 0 0c-7.314286-7.314286-10.971429-18.285714-18.285714-25.6l0 0-80.457143-87.771429c-36.571429 21.942857-76.8 32.914286-120.685714 32.914286-43.885714 0-84.114286-10.971429-120.685714-32.914286l-80.457143 87.771429 0 0c-7.314286 7.314286-14.628571 14.628571-21.942857 25.6l0 0 0 0 0 0 0 0c-10.971429 14.628571-18.285714 29.257143-25.6 47.542857-10.971429 25.6-14.628571 54.857143-14.628571 87.771429l0 84.114286c0 3.657143 0 7.314286 3.657143 10.971429l98.742857 0 0-106.057143c0-14.628571 10.971429-25.6 21.942857-25.6 10.971429 0 21.942857 10.971429 21.942857 25.6l0 142.628571 0 3.657143 0 0 0 36.571429L702.171429 943.542857 702.171429 943.542857 702.171429 943.542857zM585.142857 475.428571 585.142857 475.428571c98.742857 0 182.857143-87.771429 182.857143-197.485714 0-109.714286-80.457143-197.485714-182.857143-197.485714-102.4 0-182.857143 87.771429-182.857143 197.485714C402.285714 387.657143 486.4 475.428571 585.142857 475.428571L585.142857 475.428571 585.142857 475.428571zM186.514286 943.542857 186.514286 943.542857l109.714286 0c-14.628571-3.657143-25.6-14.628571-32.914286-29.257143-10.971429-14.628571-18.285714-36.571429-18.285714-58.514286l0-84.114286c0-36.571429 3.657143-69.485714 14.628571-102.4-29.257143 0-58.514286-10.971429-84.114286-21.942857l-58.514286 62.171429c-14.628571 18.285714-25.6 32.914286-32.914286 51.2l0 0c-7.314286 18.285714-10.971429 40.228571-10.971429 62.171429l0 62.171429 65.828571 0 0-73.142857c0-14.628571 10.971429-25.6 21.942857-25.6 10.971429 0 21.942857 10.971429 21.942857 25.6L182.857143 943.542857 186.514286 943.542857 186.514286 943.542857zM329.142857 321.828571 329.142857 321.828571C321.828571 318.171429 314.514286 314.514286 307.2 310.857143 292.571429 307.2 281.6 307.2 266.971429 307.2c-36.571429 0-69.485714 14.628571-91.428571 40.228571-21.942857 25.6-36.571429 62.171429-36.571429 98.742857 0 40.228571 14.628571 73.142857 36.571429 98.742857l0 0c25.6 25.6 58.514286 40.228571 91.428571 40.228571 10.971429 0 18.285714 0 25.6-3.657143 3.657143 0 10.971429-3.657143 14.628571-3.657143 7.314286-7.314286 14.628571-18.285714 21.942857-25.6l73.142857-76.8L402.285714 475.428571l0 0 0 0c-36.571429-36.571429-58.514286-84.114286-69.485714-135.314286C332.8 336.457143 329.142857 332.8 329.142857 329.142857l0 0L329.142857 321.828571 329.142857 321.828571 329.142857 321.828571 329.142857 321.828571zM983.771429 943.542857 983.771429 943.542857l0-131.657143c0-14.628571 10.971429-25.6 21.942857-25.6 10.971429 0 21.942857 10.971429 21.942857 25.6l0 73.142857 65.828571 0 0-62.171429c0-21.942857-3.657143-43.885714-10.971429-62.171429l0 0 0 0c-7.314286-18.285714-18.285714-36.571429-32.914286-51.2l-58.514286-62.171429c-25.6 10.971429-54.857143 21.942857-84.114286 21.942857 10.971429 32.914286 14.628571 65.828571 14.628571 102.4l0 84.114286c0 21.942857-7.314286 40.228571-14.628571 58.514286-7.314286 14.628571-21.942857 21.942857-32.914286 29.257143L983.771429 943.542857 983.771429 943.542857 983.771429 943.542857zM841.142857 321.828571 841.142857 321.828571 841.142857 321.828571l0 3.657143 0 0 0 0c-10.971429 54.857143-32.914286 106.057143-73.142857 146.285714l0 0 0 0 0 0 73.142857 76.8 0 0c7.314286 7.314286 14.628571 14.628571 21.942857 25.6 3.657143 0 10.971429 3.657143 14.628571 3.657143l0 0 0 0c7.314286 0 18.285714 3.657143 25.6 3.657143 36.571429 0 69.485714-14.628571 91.428571-40.228571 21.942857-25.6 40.228571-62.171429 40.228571-98.742857 0-40.228571-14.628571-73.142857-40.228571-98.742857-21.942857-25.6-54.857143-40.228571-91.428571-40.228571-14.628571 0-25.6 3.657143-40.228571 7.314286C855.771429 314.514286 848.457143 318.171429 841.142857 321.828571L841.142857 321.828571 841.142857 321.828571zM841.142857 321.828571" fill="#272636"></path></g></g></svg>