<?xml version="1.0" standalone="no"?><!DOCTYPE svg PUBLIC "-//W3C//DTD SVG 1.1//EN" "http://www.w3.org/Graphics/SVG/1.1/DTD/svg11.dtd"><svg width="200" height="200" viewBox="0 0 200 200" version="1.1" xmlns="http://www.w3.org/2000/svg" xmlns:xlink="http://www.w3.org/1999/xlink"><defs><style type="text/css"><![CDATA[
@font-face { font-family: ifont; src: url("http://at.alicdn.com/t/font_1442373896_4754455.eot?#iefix") format("embedded-opentype"), url("http://at.alicdn.com/t/font_1442373896_4754455.woff") format("woff"), url("http://at.alicdn.com/t/font_1442373896_4754455.ttf") format("truetype"), url("http://at.alicdn.com/t/font_1442373896_4754455.svg#ifont") format("svg"); }

]]></style></defs><g class="transform-group"><g transform="scale(0.2, 0.2)"><path d="M832.131 46.486h-674.757c-16.954 0-122.681 0-122.681 122.681v674.725c0 122.681 122.681 122.681 122.681 122.681h674.757c122.681 0 122.681-122.681 122.681-122.681v-674.725c0-122.681-105.789-122.681-122.681-122.681zM893.474 843.892c0 0 0 61.339-61.342 61.339h-674.758c0 0-61.339 0-61.339-61.339v-674.725c0-61.34 44.386-61.34 61.339-61.34h674.757c16.892 0 61.342 0 61.342 61.34v674.725zM280.053 353.18h429.392v-61.335h-429.392v61.335zM280.053 537.2h429.392v-61.34h-429.392v61.34zM280.053 721.212h429.392v-61.334h-429.392v61.334z" fill="#272636"></path></g></g></svg>