<?xml version="1.0" standalone="no"?><!DOCTYPE svg PUBLIC "-//W3C//DTD SVG 1.1//EN" "http://www.w3.org/Graphics/SVG/1.1/DTD/svg11.dtd"><svg width="200" height="200" viewBox="0 0 200 200" version="1.1" xmlns="http://www.w3.org/2000/svg" xmlns:xlink="http://www.w3.org/1999/xlink"><defs><style type="text/css"><![CDATA[
@font-face { font-family: ifont; src: url("http://at.alicdn.com/t/font_1442373896_4754455.eot?#iefix") format("embedded-opentype"), url("http://at.alicdn.com/t/font_1442373896_4754455.woff") format("woff"), url("http://at.alicdn.com/t/font_1442373896_4754455.ttf") format("truetype"), url("http://at.alicdn.com/t/font_1442373896_4754455.svg#ifont") format("svg"); }

]]></style></defs><g class="transform-group"><g transform="scale(0.1953125, 0.1953125)"><path d="M532.417005 763.087619 532.417005 166.550247c0-20.513196-16.405645-36.920888-36.915771-36.920888-20.515243 0-36.920888 16.407692-36.920888 36.920888l0 597.565794c0 20.509103 16.406668 36.915771 36.920888 36.915771C516.01136 800.00953 532.417005 783.597745 532.417005 763.087619L532.417005 763.087619zM255.332293 645.169999l517.869684-296.088532c17.808598-10.181897 23.908526-32.567743 13.728676-50.373271-10.18292-17.809621-32.568766-23.908526-50.377364-13.726629L217.791282 581.580728c-17.804505 10.17985-23.904433 32.565696-13.722536 50.375318C215.135802 649.254014 237.526765 655.349849 255.332293 645.169999L255.332293 645.169999zM218.903615 349.065094l517.307889 297.068859c17.789155 10.215666 40.187281 4.158716 50.4009-13.626345 10.215666-17.790178 4.157693-40.188304-13.631462-50.402947L254.781754 284.523125c-17.785062-10.212596-40.183188-4.15667-50.398854 13.633508C195.054441 316.451302 201.11753 338.851475 218.903615 349.065094L218.903615 349.065094z" fill="#272636"></path></g></g></svg>